<?xml version="1.0" encoding="UTF-8" standalone="no"?>
<!-- Created with Inkscape (http://www.inkscape.org/) -->

<svg
   xmlns:dc="http://purl.org/dc/elements/1.1/"
   xmlns:cc="http://creativecommons.org/ns#"
   xmlns:rdf="http://www.w3.org/1999/02/22-rdf-syntax-ns#"
   xmlns:svg="http://www.w3.org/2000/svg"
   xmlns="http://www.w3.org/2000/svg"
   xmlns:sodipodi="http://sodipodi.sourceforge.net/DTD/sodipodi-0.dtd"
   xmlns:inkscape="http://www.inkscape.org/namespaces/inkscape"
   id="svg2985"
   version="1.1"
   inkscape:version="0.48.5 r10040"
   width="1000"
   height="361.62033"
   xml:space="preserve"
   sodipodi:docname="July2014-Booklet.pdf"><metadata
     id="metadata2991"><rdf:RDF><cc:Work
         rdf:about=""><dc:format>image/svg+xml</dc:format><dc:type
           rdf:resource="http://purl.org/dc/dcmitype/StillImage" /><dc:title></dc:title></cc:Work></rdf:RDF></metadata><defs
     id="defs2989"><clipPath
       clipPathUnits="userSpaceOnUse"
       id="clipPath2999"><path
         d="m 596.485,-0.97302 -597.73,0 0,843.98602 597.73,0 0,-843.98602 M 70.555,567.961 l 0,-514.402 271.373,0 0,53.881 c 4.147,-0.423 8.807,-0.66 13.734,-0.66 17.292,0 31.31,2.925 31.31,6.534 0,3.608 -14.018,6.533 -31.31,6.533 -4.927,0 -9.587,-0.237 -13.734,-0.66 l 0,311.795 c 19.455,11.527 32.501,32.734 32.501,56.986 0,24.253 -13.046,45.46 -32.501,56.987 l 0,23.006 33.539,0 0,60.918 -327.227,0 0,-60.918 22.315,0"
         id="path3001"
         inkscape:connector-curvature="0" /></clipPath><clipPath
       clipPathUnits="userSpaceOnUse"
       id="clipPath3005"><path
         d="m 0,841.945 595.2,0 0,-841.89 -595.2,0 0,841.89 z"
         id="path3007"
         inkscape:connector-curvature="0" /></clipPath><clipPath
       clipPathUnits="userSpaceOnUse"
       id="clipPath3037"><path
         d="m 0,841.945 595.2,0 0,-841.89 -595.2,0 0,841.89 z"
         id="path3039"
         inkscape:connector-curvature="0" /></clipPath><clipPath
       clipPathUnits="userSpaceOnUse"
       id="clipPath3177"><path
         d="m 274.378,568.26 -204.163,0 0,-137.585 204.163,0 0,137.585 z"
         id="path3179"
         inkscape:connector-curvature="0" /></clipPath><clipPath
       clipPathUnits="userSpaceOnUse"
       id="clipPath3183"><path
         d="m 341.928,53.559 -271.373,0 0,514.402 271.373,0 0,-23.006 c -9.869,5.847 -21.386,9.203 -33.688,9.203 -36.555,0 -66.189,-29.634 -66.189,-66.19 0,-36.555 29.634,-66.189 66.189,-66.189 12.302,0 23.819,3.356 33.688,9.203 l 0,-311.795 c -10.407,-1.062 -17.576,-3.293 -17.576,-5.873 0,-2.581 7.169,-4.812 17.576,-5.874 l 0,-53.881 m -40.975,46.843 c -17.292,0 -31.31,-2.926 -31.31,-6.534 0,-3.609 14.018,-6.534 31.31,-6.534 17.292,0 31.31,2.925 31.31,6.534 0,3.608 -14.018,6.534 -31.31,6.534"
         id="path3185"
         inkscape:connector-curvature="0" /></clipPath><clipPath
       clipPathUnits="userSpaceOnUse"
       id="clipPath3195"><path
         d="m 342.269,568.26 -68.219,0 0,-34.601 68.219,0 0,34.601 z"
         id="path3197"
         inkscape:connector-curvature="0" /></clipPath><clipPath
       clipPathUnits="userSpaceOnUse"
       id="clipPath3201"><path
         d="m 341.928,53.559 -271.373,0 0,514.402 271.373,0 0,-23.006 c -9.869,5.847 -21.386,9.203 -33.688,9.203 -36.555,0 -66.189,-29.634 -66.189,-66.19 0,-36.555 29.634,-66.189 66.189,-66.189 12.302,0 23.819,3.356 33.688,9.203 l 0,-311.795 c -10.407,-1.062 -17.576,-3.293 -17.576,-5.873 0,-2.581 7.169,-4.812 17.576,-5.874 l 0,-53.881 m -40.975,46.843 c -17.292,0 -31.31,-2.926 -31.31,-6.534 0,-3.609 14.018,-6.534 31.31,-6.534 17.292,0 31.31,2.925 31.31,6.534 0,3.608 -14.018,6.534 -31.31,6.534"
         id="path3203"
         inkscape:connector-curvature="0" /></clipPath><clipPath
       clipPathUnits="userSpaceOnUse"
       id="clipPath3213"><path
         d="m 342.269,465.276 -68.219,0 0,-412.098 68.219,0 0,412.098 z"
         id="path3215"
         inkscape:connector-curvature="0" /></clipPath><clipPath
       clipPathUnits="userSpaceOnUse"
       id="clipPath3219"><path
         d="m 341.928,53.559 -271.373,0 0,514.402 271.373,0 0,-23.006 c -9.869,5.847 -21.386,9.203 -33.688,9.203 -36.555,0 -66.189,-29.634 -66.189,-66.19 0,-36.555 29.634,-66.189 66.189,-66.189 12.302,0 23.819,3.356 33.688,9.203 l 0,-311.795 c -10.407,-1.062 -17.576,-3.293 -17.576,-5.873 0,-2.581 7.169,-4.812 17.576,-5.874 l 0,-53.881 m -40.975,46.843 c -17.292,0 -31.31,-2.926 -31.31,-6.534 0,-3.609 14.018,-6.534 31.31,-6.534 17.292,0 31.31,2.925 31.31,6.534 0,3.608 -14.018,6.534 -31.31,6.534"
         id="path3221"
         inkscape:connector-curvature="0" /></clipPath><clipPath
       clipPathUnits="userSpaceOnUse"
       id="clipPath3231"><path
         d="m 274.378,431.003 -204.163,0 0,-137.585 204.163,0 0,137.585 z"
         id="path3233"
         inkscape:connector-curvature="0" /></clipPath><clipPath
       clipPathUnits="userSpaceOnUse"
       id="clipPath3237"><path
         d="m 341.928,53.559 -271.373,0 0,514.402 271.373,0 0,-23.006 c -9.869,5.847 -21.386,9.203 -33.688,9.203 -36.555,0 -66.189,-29.634 -66.189,-66.19 0,-36.555 29.634,-66.189 66.189,-66.189 12.302,0 23.819,3.356 33.688,9.203 l 0,-311.795 c -10.407,-1.062 -17.576,-3.293 -17.576,-5.873 0,-2.581 7.169,-4.812 17.576,-5.874 l 0,-53.881 m -40.975,46.843 c -17.292,0 -31.31,-2.926 -31.31,-6.534 0,-3.609 14.018,-6.534 31.31,-6.534 17.292,0 31.31,2.925 31.31,6.534 0,3.608 -14.018,6.534 -31.31,6.534"
         id="path3239"
         inkscape:connector-curvature="0" /></clipPath><clipPath
       clipPathUnits="userSpaceOnUse"
       id="clipPath3249"><path
         d="m 274.378,293.746 -204.163,0 0,-137.585 204.163,0 0,137.585 z"
         id="path3251"
         inkscape:connector-curvature="0" /></clipPath><clipPath
       clipPathUnits="userSpaceOnUse"
       id="clipPath3255"><path
         d="m 341.928,53.559 -271.373,0 0,514.402 271.373,0 0,-23.006 c -9.869,5.847 -21.386,9.203 -33.688,9.203 -36.555,0 -66.189,-29.634 -66.189,-66.19 0,-36.555 29.634,-66.189 66.189,-66.189 12.302,0 23.819,3.356 33.688,9.203 l 0,-311.795 c -10.407,-1.062 -17.576,-3.293 -17.576,-5.873 0,-2.581 7.169,-4.812 17.576,-5.874 l 0,-53.881 m -40.975,46.843 c -17.292,0 -31.31,-2.926 -31.31,-6.534 0,-3.609 14.018,-6.534 31.31,-6.534 17.292,0 31.31,2.925 31.31,6.534 0,3.608 -14.018,6.534 -31.31,6.534"
         id="path3257"
         inkscape:connector-curvature="0" /></clipPath><clipPath
       clipPathUnits="userSpaceOnUse"
       id="clipPath3267"><path
         d="m 274.378,156.489 -204.163,0 0,-103.311 204.163,0 0,103.311 z"
         id="path3269"
         inkscape:connector-curvature="0" /></clipPath><clipPath
       clipPathUnits="userSpaceOnUse"
       id="clipPath3273"><path
         d="m 341.928,53.559 -271.373,0 0,514.402 271.373,0 0,-23.006 c -9.869,5.847 -21.386,9.203 -33.688,9.203 -36.555,0 -66.189,-29.634 -66.189,-66.19 0,-36.555 29.634,-66.189 66.189,-66.189 12.302,0 23.819,3.356 33.688,9.203 l 0,-311.795 c -10.407,-1.062 -17.576,-3.293 -17.576,-5.873 0,-2.581 7.169,-4.812 17.576,-5.874 l 0,-53.881 m -40.975,46.843 c -17.292,0 -31.31,-2.926 -31.31,-6.534 0,-3.609 14.018,-6.534 31.31,-6.534 17.292,0 31.31,2.925 31.31,6.534 0,3.608 -14.018,6.534 -31.31,6.534"
         id="path3275"
         inkscape:connector-curvature="0" /></clipPath><clipPath
       clipPathUnits="userSpaceOnUse"
       id="clipPath3285"><path
         d="m 341.928,567.961 -271.373,0 0,8.382 271.373,0 0,-8.382"
         id="path3287"
         inkscape:connector-curvature="0" /></clipPath><clipPath
       clipPathUnits="userSpaceOnUse"
       id="clipPath3297"><path
         d="m 70.555,607.945 271.373,0 0,-31.602 -271.373,0 0,31.602 z"
         id="path3299"
         inkscape:connector-curvature="0" /></clipPath><clipPath
       clipPathUnits="userSpaceOnUse"
       id="clipPath3309"><path
         d="m 104.684,580.267 0,36.263 c 0,2.175 -1.408,3.709 -3.713,3.709 -1.537,0 -2.753,-0.959 -3.394,-2.302 L 83.224,587.941 68.743,617.937 c -0.704,1.279 -1.729,2.302 -3.457,2.302 -2.113,0 -3.65,-1.662 -3.65,-3.645 l 0,-36.264 c 0,-1.982 1.665,-3.709 3.65,-3.709 2.048,0 3.713,1.727 3.713,3.709 l 0,21.234 11.021,-22.896 c 0.705,-1.407 1.666,-2.047 3.204,-2.047 1.41,0 2.563,0.703 3.204,2.047 l 10.893,22.896 0,-21.297 c 0,-1.983 1.601,-3.646 3.65,-3.646 2.177,0 3.713,1.663 3.713,3.646 z m 48.555,18.163 c 0,12.324 -9.346,22.052 -21.899,22.052 -12.553,0 -21.899,-9.728 -21.899,-22.052 0,-12.324 9.346,-22.051 21.899,-22.051 12.553,0 21.899,9.727 21.899,22.051 z m -7.873,0 c 0,-8.109 -5.315,-15.006 -14.026,-15.006 -8.71,0 -14.026,6.897 -14.026,15.006 0,8.11 5.316,15.006 14.026,15.006 8.711,0 14.026,-6.896 14.026,-15.006 z m 47.76,-16.246 -6.593,13.365 c 4.865,2.111 7.041,6.4 7.041,11.4 0,7.562 -4.544,12.81 -15.172,12.81 l -16.454,0 c -2.177,0 -3.906,-1.728 -3.906,-3.904 l 0,-35.334 c 0,-2.174 1.729,-3.9 3.906,-3.9 2.176,0 3.905,1.726 3.905,3.9 l 0,13.62 12.869,0 7.491,-15.41 c 0.64,-1.343 1.729,-2.11 3.457,-2.11 2.368,0 3.904,1.918 3.904,3.9 0,0.576 -0.192,1.151 -0.448,1.663 z m -7.425,24.701 c 0,-2.884 -1.92,-6.026 -6.21,-6.026 l -13.638,0 0,11.732 13.638,0 c 4.29,0 6.21,-2.885 6.21,-5.706 z m 45.074,-26.199 c 0,2.046 -1.665,3.646 -3.714,3.646 l -20.168,0 0,10.769 10.564,0 c 1.985,0 3.65,1.535 3.65,3.582 0,2.047 -1.665,3.646 -3.65,3.646 l -10.564,0 0,10.2 19.208,0 c 2.049,0 3.713,1.599 3.713,3.646 0,2.047 -1.664,3.582 -3.713,3.582 l -23.049,0 c -2.177,0 -3.97,-1.727 -3.97,-3.902 l 0,-34.85 c 0,-2.175 1.793,-3.902 3.97,-3.902 l 24.009,0 c 2.049,0 3.714,1.536 3.714,3.583 z m 50.175,35.425 c 0,2.049 -1.6,3.649 -3.649,3.649 l -23.433,0 c -2.177,0 -3.906,-1.728 -3.906,-3.905 l 0,-35.333 c 0,-2.174 1.729,-3.901 3.906,-3.901 2.176,0 3.905,1.727 3.905,3.901 l 0,14.519 10.884,0 c 1.985,0 3.586,1.601 3.586,3.65 0,2.049 -1.601,3.713 -3.586,3.713 l -10.884,0 0,9.993 19.528,0 c 1.985,0 3.649,1.665 3.649,3.714 z m 30.872,-22.588 c 0,-5.944 -3.585,-10.099 -10.434,-10.099 -6.85,0 -10.435,4.155 -10.435,10.099 l 0,22.754 c 0,2.173 -1.729,3.962 -3.905,3.962 -2.177,0 -3.906,-1.789 -3.906,-3.962 l 0,-21.923 c 0,-10.994 6.851,-17.975 18.246,-17.975 11.395,0 18.245,6.981 18.245,17.975 l 0,21.923 c 0,2.173 -1.728,3.962 -3.905,3.962 -2.177,0 -3.906,-1.789 -3.906,-3.962 l 0,-22.754 z m 50.577,-13.256 0,36.263 c 0,1.983 -1.536,3.709 -3.713,3.709 -2.177,0 -3.65,-1.726 -3.65,-3.709 l 0,-25.519 -22.089,27.886 c -0.577,0.767 -1.665,1.342 -2.689,1.342 -2.369,0 -3.842,-1.726 -3.842,-3.709 l 0,-36.263 c 0,-1.983 1.665,-3.646 3.65,-3.646 2.048,0 3.713,1.599 3.713,3.646 l 0,25.582 22.09,-27.885 c 0.704,-0.895 1.6,-1.343 2.817,-1.343 2.177,0 3.713,1.663 3.713,3.646"
         id="path3311"
         inkscape:connector-curvature="0" /></clipPath><clipPath
       clipPathUnits="userSpaceOnUse"
       id="clipPath3315"><path
         d="m 341.928,576.343 -271.373,0 0,31.602 271.373,0 0,-31.602"
         id="path3317"
         inkscape:connector-curvature="0" /></clipPath><clipPath
       clipPathUnits="userSpaceOnUse"
       id="clipPath3327"><path
         d="m 308.24,421.779 c -36.555,0 -66.189,29.634 -66.189,66.189 0,36.556 29.634,66.19 66.189,66.19 12.302,0 23.819,-3.356 33.688,-9.203 l 0,-5.412 -69.078,0 0,-42.682 69.078,0 0,-6.095 -67.16,0 0,-43.401 67.16,0 0,-16.383 c -9.869,-5.847 -21.386,-9.203 -33.688,-9.203"
         id="path3329"
         inkscape:connector-curvature="0" /></clipPath><clipPath
       clipPathUnits="userSpaceOnUse"
       id="clipPath3339"><path
         d="m 272.85,539.543 69.078,0 0,-42.682 -69.078,0 0,42.682 z"
         id="path3341"
         inkscape:connector-curvature="0" /></clipPath><clipPath
       clipPathUnits="userSpaceOnUse"
       id="clipPath3351"><path
         d="m 306.505,539.54 -6.473,0 -2.937,-27.741 -0.12,0 -4.975,27.741 -4.675,0 -4.795,-27.082 -0.12,0 -3.057,27.082 -6.474,0 6.353,-42.66 5.755,0 4.615,27.681 0.12,0 4.675,-27.681 5.755,0 6.353,42.66 z m 4.412,-42.66 6.113,0 0,42.66 -6.113,0 0,-42.66 z m 12.238,0 6.117,0 0,25.644 0.12,0 9.35,-25.644 5.753,0 0,42.66 -6.113,0 0,-25.703 -0.12,0 -9.231,25.703 -5.876,0 0,-42.66"
         id="path3353"
         inkscape:connector-curvature="0" /></clipPath><clipPath
       clipPathUnits="userSpaceOnUse"
       id="clipPath3357"><path
         d="m 341.928,496.861 -69.078,0 0,42.682 69.078,0 0,-42.682"
         id="path3359"
         inkscape:connector-curvature="0" /></clipPath><clipPath
       clipPathUnits="userSpaceOnUse"
       id="clipPath3369"><path
         d="m 274.768,490.766 67.16,0 0,-43.401 -67.16,0 0,43.401 z"
         id="path3371"
         inkscape:connector-curvature="0" /></clipPath><clipPath
       clipPathUnits="userSpaceOnUse"
       id="clipPath3381"><path
         d="m 274.798,447.74 8.332,0 c 3.995,0 6.901,1 8.72,3 1.818,2 2.727,4.88 2.727,8.64 l 0,2.4 c 0,2.24 -0.339,4.03 -1.019,5.37 -0.68,1.34 -1.739,2.35 -3.177,3.03 0.68,0.398 1.279,0.827 1.798,1.286 0.52,0.459 0.959,0.987 1.319,1.586 0.36,0.598 0.63,1.295 0.809,2.093 0.18,0.797 0.27,1.775 0.27,2.932 l 0,1.555 c 0,1.395 -0.189,2.741 -0.569,4.038 -0.38,1.296 -1.009,2.442 -1.888,3.44 -0.879,0.997 -2.008,1.795 -3.387,2.393 -1.379,0.598 -3.047,0.897 -5.004,0.897 l -8.931,0 0,-42.66 z m 6.111,19.8 2.698,0 c 1.119,0 2.019,-0.14 2.698,-0.42 0.679,-0.28 1.209,-0.69 1.589,-1.23 0.379,-0.54 0.629,-1.21 0.749,-2.01 0.12,-0.8 0.18,-1.74 0.18,-2.82 0,-1.04 -0.04,-2 -0.12,-2.88 -0.08,-0.88 -0.3,-1.64 -0.659,-2.28 -0.36,-0.64 -0.89,-1.14 -1.589,-1.5 -0.699,-0.36 -1.669,-0.54 -2.908,-0.54 l -2.638,0 0,13.68 z m 0,17.1 2.518,0 c 2.038,0 3.447,-0.478 4.227,-1.433 0.779,-0.955 1.169,-2.387 1.169,-4.298 0,-1.95 -0.35,-3.433 -1.049,-4.447 -0.7,-1.015 -2.069,-1.522 -4.107,-1.522 l -2.758,0 0,11.7 z m 18.788,-36.9 6.113,0 0,42.66 -6.113,0 0,-42.66 z m 10.919,10.066 c 0,-1.758 0.3,-3.286 0.899,-4.584 0.6,-1.298 1.389,-2.377 2.368,-3.236 0.978,-0.858 2.077,-1.508 3.296,-1.947 1.219,-0.439 2.448,-0.659 3.687,-0.659 1.239,0 2.467,0.22 3.686,0.66 1.219,0.44 2.318,1.09 3.297,1.95 0.979,0.86 1.768,1.94 2.368,3.24 0.599,1.3 0.899,2.83 0.899,4.59 l 0,13.44 -10.967,0 0,-5.4 4.854,0 0,-8.04 c 0,-1.48 -0.409,-2.57 -1.228,-3.27 -0.82,-0.7 -1.789,-1.05 -2.907,-1.05 -1.119,0 -2.088,0.349 -2.907,1.048 -0.82,0.699 -1.229,1.787 -1.229,3.264 l 0,22.516 c 0,1.477 0.409,2.565 1.229,3.264 0.819,0.698 1.788,1.048 2.907,1.048 1.118,0 2.087,-0.35 2.907,-1.049 0.819,-0.699 1.228,-1.789 1.228,-3.267 l 0,-2.158 6.113,0 0,2.158 c 0,1.718 -0.3,3.236 -0.899,4.556 -0.6,1.32 -1.389,2.41 -2.368,3.27 -0.979,0.86 -2.078,1.51 -3.297,1.95 -1.219,0.44 -2.447,0.66 -3.686,0.66 -1.239,0 -2.468,-0.22 -3.687,-0.659 -1.219,-0.44 -2.318,-1.088 -3.296,-1.947 -0.979,-0.859 -1.768,-1.947 -2.368,-3.266 -0.599,-1.318 -0.899,-2.836 -0.899,-4.554 l 0,-22.528 z m 29.158,0.467 2.998,0 2.337,32.127 -7.674,0 2.339,-32.127 z m -1.559,-10.533 6.114,0 0,6.12 -6.114,0 0,-6.12 z"
         id="path3383"
         inkscape:connector-curvature="0" /></clipPath><clipPath
       clipPathUnits="userSpaceOnUse"
       id="clipPath3387"><path
         d="m 341.928,447.365 -67.16,0 0,43.401 67.16,0 0,-43.401"
         id="path3389"
         inkscape:connector-curvature="0" /></clipPath><clipPath
       clipPathUnits="userSpaceOnUse"
       id="clipPath3435"><path
         d="m 355.662,106.78 c -4.927,0 -9.587,0.237 -13.734,0.66 l 0,11.747 c 4.147,0.423 8.807,0.66 13.734,0.66 17.292,0 31.31,-2.925 31.31,-6.533 0,-3.609 -14.018,-6.534 -31.31,-6.534"
         id="path3437"
         inkscape:connector-curvature="0" /></clipPath><clipPath
       clipPathUnits="userSpaceOnUse"
       id="clipPath3447"><path
         d="m 341.928,107.44 c -10.407,1.062 -17.576,3.293 -17.576,5.874 0,2.58 7.169,4.811 17.576,5.873 l 0,-11.747"
         id="path3449"
         inkscape:connector-curvature="0" /></clipPath><clipPath
       clipPathUnits="userSpaceOnUse"
       id="clipPath3459"><path
         d="m 300.953,87.334 c -17.292,0 -31.31,2.925 -31.31,6.534 0,3.608 14.018,6.534 31.31,6.534 17.292,0 31.31,-2.926 31.31,-6.534 0,-3.609 -14.018,-6.534 -31.31,-6.534"
         id="path3461"
         inkscape:connector-curvature="0" /></clipPath><clipPath
       clipPathUnits="userSpaceOnUse"
       id="clipPath3471"><path
         d="m 383.188,221.024 -126.067,0 0,-128.058 126.067,0 0,128.058 z"
         id="path3473"
         inkscape:connector-curvature="0" /></clipPath><clipPath
       clipPathUnits="userSpaceOnUse"
       id="clipPath3477"><path
         d="m 202.177,226.902 230.854,0 0,-153.903 -230.854,0 0,153.903 z"
         id="path3479"
         inkscape:connector-curvature="0" /></clipPath><clipPath
       clipPathUnits="userSpaceOnUse"
       id="clipPath3483"><path
         d="m 381.525,141.908 c -0.084,-1.149 -0.685,-1.72 -0.685,-1.72 -3.07,-13.472 -9.224,-16.807 -9.224,-16.807 -2.984,-4.192 -6.27,-5.967 -6.27,-5.967 -2.757,-2.266 -5.906,-2.966 -5.906,-2.966 -5.084,-1.638 -11.111,2.074 -11.111,2.074 -17.657,8.215 -13.537,30.809 -13.537,30.809 4.352,21.491 17.564,23.333 17.564,23.333 2.086,0.813 4.059,1.227 4.059,1.227 l 2.899,2.198 -0.959,0.14 -0.233,-0.023 -2.128,-0.257 c -0.538,0.07 -0.701,0.467 -0.701,0.467 -0.141,1.59 -2.175,8.16 -2.175,8.16 -0.047,0.374 0.07,0.514 0.07,0.514 l 0.772,0.257 0.051,0.207 c -5.07,11.012 -11.8,17.741 -11.8,17.741 -11.277,12.76 -25.027,14.311 -25.027,14.311 l -6.325,-1.389 -9.943,-2.705 c -0.731,0 -2.998,-1.134 -2.998,-1.134 -1.316,-0.365 -6.56,-5.325 -6.56,-5.325 -21.436,-22.398 -17.797,-50.076 -17.797,-50.076 l 0.564,0.084 c 0.356,-0.063 0.607,-1.087 0.607,-1.087 0.125,-2.216 1.421,-7.734 1.421,-7.734 7.579,4.268 20.021,-3.388 20.021,-3.388 19.601,-14.633 23.061,-28.595 23.061,-28.595 1.535,-8.635 -1.525,-11.72 -1.525,-11.72 -1.915,-6.597 -7.279,-6.895 -7.279,-6.895 -3.746,-1.319 -6.719,0.217 -6.719,0.217 -14.784,-6.628 -27.614,6.374 -27.614,6.374 -9.346,9.263 -9.668,19.291 -9.668,19.291 -2.777,3.442 -4.498,10.271 -4.498,10.271 -1.611,8.828 3.462,11.121 3.462,11.121 l -4.418,0.155 c -1.202,0.388 -2.442,4.651 -2.442,4.651 -1.046,5.465 0.31,5.814 0.31,5.814 l 3.741,1.403 c -3.46,26.604 9.846,42.832 9.846,42.832 10.911,15.962 29.186,19.059 29.186,19.059 l 8.696,1.558 c 9.314,2.258 18.053,1.447 18.053,1.447 29.754,-4.431 37.394,-34.548 37.394,-34.548 l 3.098,0.284 c 1.397,-0.061 1.247,-0.419 1.247,-0.419 2.544,-4.503 1.975,-8.51 1.975,-8.51 -0.058,-0.372 -3.955,-1.834 -3.955,-1.834 l 0,-0.172 c 6.018,-1.318 8.753,-6.733 8.753,-6.733 7.832,-11.614 4.647,-25.995 4.647,-25.995 m -103.854,55.457 c -1.268,-1.61 -3.713,-6.064 -5.344,-9.23 0.627,-1.742 -1.492,-5.878 -2.721,-12.242 -1.228,-6.365 -1.068,-11.466 -1.068,-11.466 0,0 0.508,5.547 1.02,8.648 0.512,3.1 1.334,7.259 3.352,12.29 2.018,5.032 3.974,8.915 7.141,13.312 3.168,4.397 5.153,5.892 7.045,8.113 -3.161,-0.914 -8.157,-7.815 -9.425,-9.425 m 65.681,11.611 c -8.708,6.97 -16.469,7.724 -16.469,7.724 0,0 4.252,-1.607 8.064,-3.595 3.813,-1.988 8.599,-6.17 8.599,-6.17 0,0 -0.66,1.197 -0.194,2.041"
         clip-rule="evenodd"
         id="path3485"
         inkscape:connector-curvature="0" /></clipPath><clipPath
       clipPathUnits="userSpaceOnUse"
       id="clipPath3489"><path
         d="m 258.137,219.976 0,-126 124.028,0 0,126 -124.028,0"
         id="path3491"
         inkscape:connector-curvature="0" /></clipPath></defs><sodipodi:namedview
     pagecolor="#ffffff"
     bordercolor="#666666"
     borderopacity="1"
     objecttolerance="10"
     gridtolerance="10"
     guidetolerance="10"
     inkscape:pageopacity="0"
     inkscape:pageshadow="2"
     inkscape:window-width="1055"
     inkscape:window-height="1038"
     id="namedview2987"
     showgrid="false"
     fit-margin-left="0.5"
     fit-margin-bottom="0.5"
     fit-margin-top="0.5"
     fit-margin-right="0.5"
     inkscape:zoom="0.092078014"
     inkscape:cx="2407.6155"
     inkscape:cy="-992.4407"
     inkscape:window-x="854"
     inkscape:window-y="-20"
     inkscape:window-maximized="0"
     inkscape:current-layer="g2993" /><g
     id="g2993"
     inkscape:groupmode="layer"
     inkscape:label="July2014-Booklet"
     transform="matrix(1.25,0,0,-1.25,-498.7125,1313.5453)"><path
       d="m 399.37,761.94 132.97806,0 0,19.0127 -132.97806,0 0,-19.0127 z"
       style="fill:#0078ae;fill-opacity:1;fill-rule:nonzero;stroke:none"
       id="path3043"
       inkscape:connector-curvature="0" /><path
       d="m 532.34806,761.94 132.95478,0 0,19.0127 -132.95478,0 0,-19.0127 z"
       style="fill:#e31836;fill-opacity:1;fill-rule:nonzero;stroke:none"
       id="path3045"
       inkscape:connector-curvature="0" /><path
       d="m 665.30284,761.94 132.96875,0 0,19.0127 -132.96875,0 0,-19.0127 z"
       style="fill:#48a942;fill-opacity:1;fill-rule:nonzero;stroke:none"
       id="path3047"
       inkscape:connector-curvature="0" /><path
       d="m 798.29021,761.94 132.95944,0 0,19.0127 -132.95944,0 0,-19.0127 z"
       style="fill:#fdb813;fill-opacity:1;fill-rule:nonzero;stroke:none"
       id="path3049"
       inkscape:connector-curvature="0" /><path
       d="m 931.24965,761.94 132.96405,0 0,19.0127 -132.96405,0 0,-19.0127 z"
       style="fill:#231f20;fill-opacity:1;fill-rule:nonzero;stroke:none"
       id="path3051"
       inkscape:connector-curvature="0" /><path
       d="m 1064.2277,761.94 132.9781,0 0,19.0127 -132.9781,0 0,-19.0127 z"
       style="fill:#bbbdc0;fill-opacity:1;fill-rule:nonzero;stroke:none"
       id="path3053"
       inkscape:connector-curvature="0" /><g
       id="g3059"
       transform="matrix(4.6560945,0,0,4.6560945,438.93749,938.04746)"
       style="fill:#231f20;fill-opacity:1"><path
         d="m 0,0 c 0,6.413 4.167,10.9 10.125,10.9 3.242,0 5.131,-1.242 6.976,-2.647 3.008,-2.068 6.414,-0.131 6.414,2.966 0,1.038 -0.413,1.95 -1.253,2.784 -2.809,2.917 -7.353,4.659 -12.137,4.659 -10.823,0 -18.393,-7.675 -18.393,-18.662 0,-10.988 7.57,-18.656 18.393,-18.656 4.784,0 9.328,1.734 12.126,4.636 0.851,0.853 1.264,1.77 1.264,2.803 0,3.094 -3.314,5.105 -6.457,2.938 C 15.256,-9.661 13.367,-10.9 10.125,-10.9 4.167,-10.9 0,-6.412 0,0"
         style="fill:#231f20;fill-opacity:1;fill-rule:nonzero;stroke:none"
         id="path3061"
         inkscape:connector-curvature="0" /></g><g
       id="g3063"
       transform="matrix(4.6560945,0,0,4.6560945,604.88536,890.16884)"
       style="fill:#231f20;fill-opacity:1"><path
         d="m 0,0 0,6.63 7.458,0 c 2.192,0 3.901,1.692 3.901,3.859 0,2.155 -1.746,3.91 -3.901,3.91 l -7.458,0 0,6.171 14.374,0 c 2.172,0 3.958,1.745 3.958,3.9 0,2.167 -1.742,3.858 -3.958,3.858 l -18.436,0 c -2.296,0 -4.166,-1.844 -4.166,-4.109 l 0,-27.869 c 0,-2.274 1.87,-4.113 4.166,-4.113 l 19.207,0 c 2.209,0 3.957,1.694 3.957,3.858 C 19.102,-1.749 17.318,0 15.145,0 L 0,0"
         style="fill:#231f20;fill-opacity:1;fill-rule:nonzero;stroke:none"
         id="path3065"
         inkscape:connector-curvature="0" /></g><g
       id="g3067"
       transform="matrix(4.6560945,0,0,4.6560945,828.73176,872.46172)"
       style="fill:#231f20;fill-opacity:1"><path
         d="m 0,0 c 0,2.155 -1.76,3.913 -3.914,3.913 l -13.973,0 0,24.044 c 0,2.338 -1.775,4.165 -4.056,4.165 -2.277,0 -4.154,-1.866 -4.154,-4.165 l 0,-27.756 c 0,-2.291 1.877,-4.16 4.154,-4.16 l 18.059,0 C -1.711,-3.886 0,-2.145 0,0"
         style="fill:#231f20;fill-opacity:1;fill-rule:nonzero;stroke:none"
         id="path3069"
         inkscape:connector-curvature="0" /></g><g
       id="g3071"
       transform="matrix(4.6560945,0,0,4.6560945,961.24886,872.46172)"
       style="fill:#231f20;fill-opacity:1"><path
         d="m 0,0 c 0,2.155 -1.753,3.913 -3.908,3.913 l -13.965,0 0,24.044 c 0,2.338 -1.778,4.165 -4.068,4.165 -2.28,0 -4.15,-1.866 -4.15,-4.165 l 0,-27.756 c 0,-2.291 1.87,-4.16 4.15,-4.16 l 18.065,0 C -1.691,-3.886 0,-2.145 0,0"
         style="fill:#231f20;fill-opacity:1;fill-rule:nonzero;stroke:none"
         id="path3073"
         inkscape:connector-curvature="0" /></g><g
       id="g3075"
       transform="matrix(4.6560945,0,0,4.6560945,1198.57,938.04746)"
       style="fill:#231f20;fill-opacity:1"><path
         d="M 0,0 C 0,13.33 -10.797,24.138 -24.132,24.138 -37.449,24.138 -48.267,13.33 -48.267,0 c 0,-13.33 10.818,-24.136 24.135,-24.136 C -10.797,-24.136 0,-13.33 0,0 z m -6.03,0 c 0,-9.996 -8.108,-18.103 -18.102,-18.103 -9.984,0 -18.088,8.107 -18.088,18.103 0,10.002 8.104,18.101 18.088,18.101 9.994,0 18.102,-8.099 18.102,-18.101"
         style="fill:#231f20;fill-opacity:1;fill-rule:nonzero;stroke:none"
         id="path3077"
         inkscape:connector-curvature="0" /></g><g
       id="g3079"
       transform="matrix(4.6560945,0,0,4.6560945,1130.0975,967.84181)"
       style="fill:#231f20;fill-opacity:1"><path
         d="m 0,0 c 0,0.872 -0.374,1.656 -0.967,2.204 -2.175,2.145 -5.162,3.468 -8.459,3.468 -6.655,0 -12.058,-5.401 -12.058,-12.071 0,-6.663 5.403,-12.07 12.058,-12.07 3.34,0 6.352,1.35 8.533,3.538 0.556,0.544 0.887,1.301 0.887,2.135 0,1.667 -1.346,3.022 -3.006,3.022 -0.84,0 -1.598,-0.339 -2.142,-0.889 -1.087,-1.092 -2.599,-1.767 -4.272,-1.767 -3.328,0 -6.027,2.701 -6.027,6.031 0,3.333 2.699,6.037 6.027,6.037 1.673,0 3.185,-0.677 4.272,-1.77 l 0,0.003 c 0.544,-0.55 1.302,-0.89 2.142,-0.89 C -1.352,-3.019 0,-1.671 0,0"
         style="fill:#231f20;fill-opacity:1;fill-rule:nonzero;stroke:none"
         id="path3081"
         inkscape:connector-curvature="0" /></g></g></svg>